<svg xmlns="http://www.w3.org/2000/svg" xmlns:xlink="http://www.w3.org/1999/xlink" width="1080" zoomAndPan="magnify" viewBox="0 0 810 809.999993" height="1080" preserveAspectRatio="xMidYMid meet" version="1.0"><defs><g/><clipPath id="0882c9f383"><path d="M 31.828125 34.078125 L 450.164062 34.078125 L 450.164062 452.414062 L 31.828125 452.414062 Z M 31.828125 34.078125 " clip-rule="nonzero"/></clipPath><clipPath id="a8f514a7cf"><path d="M 70.078125 34.078125 L 411.914062 34.078125 C 422.058594 34.078125 431.789062 38.109375 438.960938 45.28125 C 446.132812 52.457031 450.164062 62.183594 450.164062 72.328125 L 450.164062 414.164062 C 450.164062 424.308594 446.132812 434.039062 438.960938 441.210938 C 431.789062 448.382812 422.058594 452.414062 411.914062 452.414062 L 70.078125 452.414062 C 59.933594 452.414062 50.207031 448.382812 43.03125 441.210938 C 35.859375 434.039062 31.828125 424.308594 31.828125 414.164062 L 31.828125 72.328125 C 31.828125 62.183594 35.859375 52.457031 43.03125 45.28125 C 50.207031 38.109375 59.933594 34.078125 70.078125 34.078125 Z M 70.078125 34.078125 " clip-rule="nonzero"/></clipPath><clipPath id="107cd48aa7"><path d="M 350.917969 348.449219 L 769.253906 348.449219 L 769.253906 766.785156 L 350.917969 766.785156 Z M 350.917969 348.449219 " clip-rule="nonzero"/></clipPath><clipPath id="7a9864de18"><path d="M 389.167969 348.449219 L 731.003906 348.449219 C 741.148438 348.449219 750.875 352.476562 758.050781 359.652344 C 765.222656 366.824219 769.253906 376.554688 769.253906 386.699219 L 769.253906 728.535156 C 769.253906 738.679688 765.222656 748.40625 758.050781 755.582031 C 750.875 762.753906 741.148438 766.785156 731.003906 766.785156 L 389.167969 766.785156 C 379.023438 766.785156 369.292969 762.753906 362.121094 755.582031 C 354.949219 748.40625 350.917969 738.679688 350.917969 728.535156 L 350.917969 386.699219 C 350.917969 376.554688 354.949219 366.824219 362.121094 359.652344 C 369.292969 352.476562 379.023438 348.449219 389.167969 348.449219 Z M 389.167969 348.449219 " clip-rule="nonzero"/></clipPath></defs><g clip-path="url(#0882c9f383)"><g clip-path="url(#a8f514a7cf)"><path fill="#ff914d" d="M 31.828125 34.078125 L 450.164062 34.078125 L 450.164062 452.414062 L 31.828125 452.414062 Z M 31.828125 34.078125 " fill-opacity="1" fill-rule="nonzero"/></g></g><g fill="#ffffff" fill-opacity="1"><g transform="translate(80.999999, 389.523611)"><g><path d="M 254.125 0 L 240.765625 -167.46875 L 239.046875 -167.46875 L 181.171875 -1.71875 L 142.8125 -1.71875 L 84.9375 -167.46875 L 83.21875 -167.46875 L 69.859375 0 L 5.484375 0 L 30.828125 -282.546875 L 99.328125 -282.546875 L 162 -119.53125 L 224.671875 -282.546875 L 293.171875 -282.546875 L 318.515625 0 Z M 254.125 0 "/></g></g></g><g clip-path="url(#107cd48aa7)"><g clip-path="url(#7a9864de18)"><path fill="#004aad" d="M 350.917969 348.449219 L 769.253906 348.449219 L 769.253906 766.785156 L 350.917969 766.785156 Z M 350.917969 348.449219 " fill-opacity="1" fill-rule="nonzero"/></g></g><g fill="#ffffff" fill-opacity="1"><g transform="translate(446.038373, 690.456504)"><g><path d="M 20.546875 -282.546875 L 108.21875 -282.546875 C 134.707031 -282.546875 155.828125 -276.894531 171.578125 -265.59375 C 187.335938 -254.289062 195.21875 -235.96875 195.21875 -210.625 C 195.21875 -182.3125 183.457031 -162.109375 159.9375 -150.015625 C 200.125 -142.929688 220.21875 -119.179688 220.21875 -78.765625 C 220.21875 -55.023438 212 -35.960938 195.5625 -21.578125 C 179.125 -7.191406 156.519531 0 127.75 0 L 20.546875 0 Z M 84.9375 -171.921875 L 90.078125 -171.921875 C 104.460938 -171.921875 115.191406 -174.429688 122.265625 -179.453125 C 129.347656 -184.484375 132.890625 -192.707031 132.890625 -204.125 C 132.890625 -223.300781 118.617188 -232.890625 90.078125 -232.890625 L 84.9375 -232.890625 Z M 84.9375 -49.65625 L 105.140625 -49.65625 C 136.648438 -49.65625 152.40625 -60.160156 152.40625 -81.171875 C 152.40625 -93.722656 148.46875 -102.738281 140.59375 -108.21875 C 132.71875 -113.695312 120.898438 -116.4375 105.140625 -116.4375 L 84.9375 -116.4375 Z M 84.9375 -49.65625 "/></g></g></g></svg>